<svg width="86" height="22" viewBox="0 0 86 22" fill="none" xmlns="http://www.w3.org/2000/svg">
<path d="M40.2188 14.7734V16H34.5312V14.7734H40.2188ZM34.8281 4.625V16H33.3203V4.625H34.8281ZM41.3438 11.8672V11.6875C41.3438 11.0781 41.4323 10.513 41.6094 9.99219C41.7865 9.46615 42.0417 9.01042 42.375 8.625C42.7083 8.23438 43.112 7.93229 43.5859 7.71875C44.0599 7.5 44.5911 7.39062 45.1797 7.39062C45.7734 7.39062 46.3073 7.5 46.7812 7.71875C47.2604 7.93229 47.6667 8.23438 48 8.625C48.3385 9.01042 48.5964 9.46615 48.7734 9.99219C48.9505 10.513 49.0391 11.0781 49.0391 11.6875V11.8672C49.0391 12.4766 48.9505 13.0417 48.7734 13.5625C48.5964 14.0833 48.3385 14.5391 48 14.9297C47.6667 15.3151 47.263 15.6172 46.7891 15.8359C46.3203 16.0495 45.7891 16.1562 45.1953 16.1562C44.6016 16.1562 44.0677 16.0495 43.5938 15.8359C43.1198 15.6172 42.7135 15.3151 42.375 14.9297C42.0417 14.5391 41.7865 14.0833 41.6094 13.5625C41.4323 13.0417 41.3438 12.4766 41.3438 11.8672ZM42.7891 11.6875V11.8672C42.7891 12.2891 42.8385 12.6875 42.9375 13.0625C43.0365 13.4323 43.1849 13.7604 43.3828 14.0469C43.5859 14.3333 43.8385 14.5599 44.1406 14.7266C44.4427 14.888 44.7943 14.9688 45.1953 14.9688C45.5911 14.9688 45.9375 14.888 46.2344 14.7266C46.5365 14.5599 46.7865 14.3333 46.9844 14.0469C47.1823 13.7604 47.3307 13.4323 47.4297 13.0625C47.5339 12.6875 47.5859 12.2891 47.5859 11.8672V11.6875C47.5859 11.2708 47.5339 10.8776 47.4297 10.5078C47.3307 10.1328 47.1797 9.80208 46.9766 9.51562C46.7786 9.22396 46.5286 8.99479 46.2266 8.82812C45.9297 8.66146 45.5807 8.57812 45.1797 8.57812C44.7839 8.57812 44.4349 8.66146 44.1328 8.82812C43.8359 8.99479 43.5859 9.22396 43.3828 9.51562C43.1849 9.80208 43.0365 10.1328 42.9375 10.5078C42.8385 10.8776 42.7891 11.2708 42.7891 11.6875ZM56.3281 7.54688H57.6406V15.8203C57.6406 16.5651 57.4896 17.2005 57.1875 17.7266C56.8854 18.2526 56.4635 18.651 55.9219 18.9219C55.3854 19.1979 54.7656 19.3359 54.0625 19.3359C53.7708 19.3359 53.4271 19.2891 53.0312 19.1953C52.6406 19.1068 52.2552 18.9531 51.875 18.7344C51.5 18.5208 51.1849 18.2318 50.9297 17.8672L51.6875 17.0078C52.0417 17.4349 52.4115 17.7318 52.7969 17.8984C53.1875 18.0651 53.5729 18.1484 53.9531 18.1484C54.4115 18.1484 54.8073 18.0625 55.1406 17.8906C55.474 17.7188 55.7318 17.4635 55.9141 17.125C56.1016 16.7917 56.1953 16.3802 56.1953 15.8906V9.40625L56.3281 7.54688ZM50.5078 11.8672V11.7031C50.5078 11.0573 50.5833 10.4714 50.7344 9.94531C50.8906 9.41406 51.112 8.95833 51.3984 8.57812C51.6901 8.19792 52.0417 7.90625 52.4531 7.70312C52.8646 7.49479 53.3281 7.39062 53.8438 7.39062C54.375 7.39062 54.8385 7.48438 55.2344 7.67188C55.6354 7.85417 55.974 8.1224 56.25 8.47656C56.5312 8.82552 56.7526 9.2474 56.9141 9.74219C57.0755 10.237 57.1875 10.7969 57.25 11.4219V12.1406C57.1927 12.7604 57.0807 13.3177 56.9141 13.8125C56.7526 14.3073 56.5312 14.7292 56.25 15.0781C55.974 15.4271 55.6354 15.6953 55.2344 15.8828C54.8333 16.0651 54.3646 16.1562 53.8281 16.1562C53.3229 16.1562 52.8646 16.0495 52.4531 15.8359C52.0469 15.6224 51.6979 15.3229 51.4062 14.9375C51.1146 14.5521 50.8906 14.099 50.7344 13.5781C50.5833 13.0521 50.5078 12.4818 50.5078 11.8672ZM51.9531 11.7031V11.8672C51.9531 12.2891 51.9948 12.6849 52.0781 13.0547C52.1667 13.4245 52.2995 13.75 52.4766 14.0312C52.6589 14.3125 52.8906 14.5339 53.1719 14.6953C53.4531 14.8516 53.7891 14.9297 54.1797 14.9297C54.6589 14.9297 55.0547 14.8281 55.3672 14.625C55.6797 14.4219 55.9271 14.1536 56.1094 13.8203C56.2969 13.487 56.4427 13.125 56.5469 12.7344V10.8516C56.4896 10.5651 56.401 10.2891 56.2812 10.0234C56.1667 9.7526 56.0156 9.51302 55.8281 9.30469C55.6458 9.09115 55.4193 8.92188 55.1484 8.79688C54.8776 8.67188 54.5599 8.60938 54.1953 8.60938C53.7995 8.60938 53.4583 8.69271 53.1719 8.85938C52.8906 9.02083 52.6589 9.24479 52.4766 9.53125C52.2995 9.8125 52.1667 10.1406 52.0781 10.5156C51.9948 10.8854 51.9531 11.2812 51.9531 11.7031ZM63.4219 11.8672V11.6875C63.4219 11.0781 63.5104 10.513 63.6875 9.99219C63.8646 9.46615 64.1198 9.01042 64.4531 8.625C64.7865 8.23438 65.1901 7.93229 65.6641 7.71875C66.138 7.5 66.6693 7.39062 67.2578 7.39062C67.8516 7.39062 68.3854 7.5 68.8594 7.71875C69.3385 7.93229 69.7448 8.23438 70.0781 8.625C70.4167 9.01042 70.6745 9.46615 70.8516 9.99219C71.0286 10.513 71.1172 11.0781 71.1172 11.6875V11.8672C71.1172 12.4766 71.0286 13.0417 70.8516 13.5625C70.6745 14.0833 70.4167 14.5391 70.0781 14.9297C69.7448 15.3151 69.3411 15.6172 68.8672 15.8359C68.3984 16.0495 67.8672 16.1562 67.2734 16.1562C66.6797 16.1562 66.1458 16.0495 65.6719 15.8359C65.1979 15.6172 64.7917 15.3151 64.4531 14.9297C64.1198 14.5391 63.8646 14.0833 63.6875 13.5625C63.5104 13.0417 63.4219 12.4766 63.4219 11.8672ZM64.8672 11.6875V11.8672C64.8672 12.2891 64.9167 12.6875 65.0156 13.0625C65.1146 13.4323 65.263 13.7604 65.4609 14.0469C65.6641 14.3333 65.9167 14.5599 66.2188 14.7266C66.5208 14.888 66.8724 14.9688 67.2734 14.9688C67.6693 14.9688 68.0156 14.888 68.3125 14.7266C68.6146 14.5599 68.8646 14.3333 69.0625 14.0469C69.2604 13.7604 69.4089 13.4323 69.5078 13.0625C69.612 12.6875 69.6641 12.2891 69.6641 11.8672V11.6875C69.6641 11.2708 69.612 10.8776 69.5078 10.5078C69.4089 10.1328 69.2578 9.80208 69.0547 9.51562C68.8568 9.22396 68.6068 8.99479 68.3047 8.82812C68.0078 8.66146 67.6589 8.57812 67.2578 8.57812C66.862 8.57812 66.513 8.66146 66.2109 8.82812C65.9141 8.99479 65.6641 9.22396 65.4609 9.51562C65.263 9.80208 65.1146 10.1328 65.0156 10.5078C64.9167 10.8776 64.8672 11.2708 64.8672 11.6875ZM78.1016 14.0469V7.54688H79.5547V16H78.1719L78.1016 14.0469ZM78.375 12.2656L78.9766 12.25C78.9766 12.8125 78.9167 13.3333 78.7969 13.8125C78.6823 14.2865 78.4948 14.6979 78.2344 15.0469C77.974 15.3958 77.6328 15.6693 77.2109 15.8672C76.7891 16.0599 76.276 16.1562 75.6719 16.1562C75.2604 16.1562 74.8828 16.0964 74.5391 15.9766C74.2005 15.8568 73.9089 15.6719 73.6641 15.4219C73.4193 15.1719 73.2292 14.8464 73.0938 14.4453C72.9635 14.0443 72.8984 13.5625 72.8984 13V7.54688H74.3438V13.0156C74.3438 13.3958 74.3854 13.7109 74.4688 13.9609C74.5573 14.2057 74.6745 14.401 74.8203 14.5469C74.9714 14.6875 75.138 14.7865 75.3203 14.8438C75.5078 14.901 75.7005 14.9297 75.8984 14.9297C76.513 14.9297 77 14.8125 77.3594 14.5781C77.7188 14.3385 77.9766 14.0182 78.1328 13.6172C78.2943 13.2109 78.375 12.7604 78.375 12.2656ZM85.2969 7.54688V8.65625H80.7266V7.54688H85.2969ZM82.2734 5.49219H83.7188V13.9062C83.7188 14.1927 83.763 14.4089 83.8516 14.5547C83.9401 14.7005 84.0547 14.7969 84.1953 14.8438C84.3359 14.8906 84.487 14.9141 84.6484 14.9141C84.7682 14.9141 84.8932 14.9036 85.0234 14.8828C85.1589 14.8568 85.2604 14.8359 85.3281 14.8203L85.3359 16C85.2214 16.0365 85.0703 16.0703 84.8828 16.1016C84.7005 16.138 84.4792 16.1562 84.2188 16.1562C83.8646 16.1562 83.5391 16.0859 83.2422 15.9453C82.9453 15.8047 82.7083 15.5703 82.5312 15.2422C82.3594 14.9089 82.2734 14.4609 82.2734 13.8984V5.49219Z" fill="#DB261B"/>
<path d="M15.0327 2.67248C14.5687 2.46979 14.0284 2.68159 13.8257 3.14553C13.623 3.60946 13.8348 4.14984 14.2987 4.35253C17.2813 5.65552 19.25 8.60548 19.25 11.9166C19.25 16.4728 15.5558 20.1667 10.9999 20.1667C6.44336 20.1667 2.74982 16.4731 2.74982 11.9166C2.74982 8.60621 4.71781 5.65625 7.69952 4.3524C8.16337 4.14959 8.37499 3.60912 8.17214 3.14527C7.96932 2.68142 7.42886 2.46979 6.96501 2.67265C3.3217 4.26573 0.916504 7.8711 0.916504 11.9166C0.916504 17.4856 5.43088 22 10.9999 22C16.5684 22 21.0834 17.4853 21.0834 11.9166C21.0834 7.87015 18.6772 4.26461 15.0327 2.67248Z" fill="#DB261B"/>
<path d="M10.9997 10.0834C11.5059 10.0834 11.9163 9.67303 11.9163 9.16677V0.916702C11.9164 0.410398 11.5059 0 10.9997 0C10.4934 0 10.083 0.410398 10.083 0.91666V9.16672C10.083 9.67299 10.4934 10.0834 10.9997 10.0834Z" fill="#DB261B"/>
</svg>
