<svg width="20" height="20" viewBox="0 0 20 20" fill="none" xmlns="http://www.w3.org/2000/svg">
<path d="M19.1667 10.816H0.833333C0.373332 10.816 0 10.4426 0 9.98263C0 9.52262 0.373332 9.14929 0.833333 9.14929H19.1667C19.6267 9.14929 20 9.52262 20 9.98263C20 10.4426 19.6267 10.816 19.1667 10.816Z" fill="#79B0B0"/>
<path d="M19.1667 4.42704H0.833333C0.373332 4.42704 0 4.05371 0 3.59371C0 3.13371 0.373332 2.76038 0.833333 2.76038H19.1667C19.6267 2.76038 20 3.13371 20 3.59371C20 4.05371 19.6267 4.42704 19.1667 4.42704Z" fill="#79B0B0"/>
<path d="M19.1667 17.2049H0.833333C0.373332 17.2049 0 16.8315 0 16.3715C0 15.9115 0.373332 15.5382 0.833333 15.5382H19.1667C19.6267 15.5382 20 15.9115 20 16.3715C20 16.8315 19.6267 17.2049 19.1667 17.2049Z" fill="#79B0B0"/>
</svg>
